<svg width="101" height="23" fill="none" xmlns="http://www.w3.org/2000/svg"><path d="M6.46 11.26 4.3 6.91h-.09V22H.46V1.06h4.35l6.3 10.74 2.16 4.35h.09V1.06h3.75V22h-4.35l-6.3-10.74ZM37.742 22.36c-1.38 0-2.63-.23-3.75-.69a7.589 7.589 0 0 1-2.88-2.07c-.78-.92-1.39-2.05-1.83-3.39-.44-1.34-.66-2.9-.66-4.68 0-1.76.22-3.31.66-4.65.44-1.36 1.05-2.5 1.83-3.42.8-.92 1.76-1.61 2.88-2.07 1.12-.46 2.37-.69 3.75-.69s2.63.23 3.75.69c1.12.46 2.08 1.15 2.88 2.07.8.92 1.41 2.06 1.83 3.42.44 1.34.66 2.89.66 4.65 0 1.78-.22 3.34-.66 4.68-.42 1.34-1.03 2.47-1.83 3.39-.8.92-1.76 1.61-2.88 2.07-1.12.46-2.37.69-3.75.69Zm0-3.51c1.5 0 2.69-.5 3.57-1.5.9-1 1.35-2.4 1.35-4.2V9.91c0-1.8-.45-3.2-1.35-4.2-.88-1-2.07-1.5-3.57-1.5s-2.7.5-3.6 1.5c-.88 1-1.32 2.4-1.32 4.2v3.24c0 1.8.44 3.2 1.32 4.2.9 1 2.1 1.5 3.6 1.5ZM62.478 22l-6.84-20.94h4.05l3.21 10.2 1.86 6.96h.09l1.83-6.96 3.21-10.2h3.93L66.978 22h-4.5ZM91.707 22.36c-1.38 0-2.63-.23-3.75-.69a7.589 7.589 0 0 1-2.88-2.07c-.78-.92-1.39-2.05-1.83-3.39-.44-1.34-.66-2.9-.66-4.68 0-1.76.22-3.31.66-4.65.44-1.36 1.05-2.5 1.83-3.42.8-.92 1.76-1.61 2.88-2.07 1.12-.46 2.37-.69 3.75-.69s2.63.23 3.75.69c1.12.46 2.08 1.15 2.88 2.07.8.92 1.41 2.06 1.83 3.42.44 1.34.66 2.89.66 4.65 0 1.78-.22 3.34-.66 4.68-.42 1.34-1.03 2.47-1.83 3.39-.8.92-1.76 1.61-2.88 2.07-1.12.46-2.37.69-3.75.69Zm0-3.51c1.5 0 2.69-.5 3.57-1.5.9-1 1.35-2.4 1.35-4.2V9.91c0-1.8-.45-3.2-1.35-4.2-.88-1-2.07-1.5-3.57-1.5s-2.7.5-3.6 1.5c-.88 1-1.32 2.4-1.32 4.2v3.24c0 1.8.44 3.2 1.32 4.2.9 1 2.1 1.5 3.6 1.5Z" fill="#fff"/></svg>