<svg width="32" height="32" fill="none" xmlns="http://www.w3.org/2000/svg"><g clip-path="url(#a)" fill="#fff"><path d="M18.667 15.999a2.667 2.667 0 1 1-5.334 0 2.667 2.667 0 0 1 5.334 0Z"/><path d="M23.162 10.582a2.847 2.847 0 0 0-.687-1.056 2.845 2.845 0 0 0-1.056-.687c-.324-.126-.81-.276-1.706-.317-.97-.044-1.26-.053-3.713-.053-2.453 0-2.744.009-3.713.053-.895.041-1.382.19-1.706.317-.399.147-.76.382-1.056.687-.305.296-.54.657-.687 1.056-.126.324-.276.81-.317 1.706-.044.97-.053 1.26-.053 3.713 0 2.453.01 2.744.053 3.713.041.895.19 1.382.317 1.705.147.4.382.76.687 1.057.296.305.657.54 1.056.687.324.126.81.276 1.706.317.97.044 1.26.053 3.713.053 2.453 0 2.744-.01 3.712-.053.896-.041 1.383-.19 1.707-.317a3.043 3.043 0 0 0 1.743-1.744c.126-.323.276-.81.317-1.705.044-.97.053-1.26.053-3.713 0-2.453-.01-2.744-.053-3.713-.041-.895-.19-1.382-.317-1.706ZM16 20.718a4.718 4.718 0 1 1 0-9.435 4.718 4.718 0 0 1 0 9.435Zm4.904-8.519a1.103 1.103 0 1 1 0-2.205 1.103 1.103 0 0 1 0 2.205Z"/><path d="M16 0C7.165 0 0 7.165 0 16s7.165 16 16 16 16-7.165 16-16S24.835 0 16 0Zm9.132 19.788c-.044.978-.2 1.646-.427 2.23a4.698 4.698 0 0 1-2.687 2.687c-.584.227-1.252.382-2.23.427-.98.045-1.293.055-3.788.055s-2.808-.01-3.788-.055c-.978-.045-1.646-.2-2.23-.427a4.501 4.501 0 0 1-1.627-1.06 4.504 4.504 0 0 1-1.06-1.627c-.227-.584-.382-1.252-.427-2.23-.045-.98-.056-1.293-.056-3.788s.011-2.808.056-3.788c.044-.978.2-1.646.427-2.23a4.5 4.5 0 0 1 1.06-1.627 4.5 4.5 0 0 1 1.627-1.06c.584-.227 1.252-.382 2.23-.427.98-.045 1.293-.056 3.788-.056s2.808.011 3.788.056c.978.045 1.646.2 2.23.427.613.23 1.168.592 1.627 1.06.468.459.83 1.014 1.06 1.627.227.584.383 1.252.427 2.23.045.98.055 1.293.055 3.788s-.01 2.808-.055 3.788Z"/></g><defs><clipPath id="a"><path fill="#fff" d="M0 0h32v32H0z"/></clipPath></defs></svg>